<svg width="512" height="512" xmlns="http://www.w3.org/2000/svg">

 <g>
  <title>background</title>
  <rect fill="none" id="canvas_background" height="402" width="582" y="-1" x="-1"/>
 </g>
 <g>
  <title>Layer 1</title>
  <path id="svg_5" fill="#DF5745" d="m511.672,255.933c0,-141.384 -114.615,-256.003 -255.997,-256.003c-141.389,0 -256.003,114.619 -256.003,256.003c0,141.388 114.615,255.997 256.003,255.997c141.382,0 255.997,-114.611 255.997,-255.997z"/>
  <path id="svg_6" fill="#C64C3C" d="m255.672,511.93c141.385,0 256,-114.612 256,-256c0,-68.155 -26.688,-130.043 -70.113,-175.917l-364.146,359.567c46.097,44.752 108.939,72.35 178.259,72.35z"/>
  <path id="svg_8" fill="#FFFFFF" d="m377.104,242.189l-176.074,-100.356c-13.268,-7.56 -24.117,-1.375 -24.117,13.729l0,200.738c0,15.104 10.85,21.29 24.117,13.721l176.074,-100.364c13.234,-7.544 13.234,-19.905 0,-27.468z"/>
  <path id="svg_9" fill="#F1F2F2" d="m176.912,356.302c0,15.104 10.85,21.29 24.117,13.722l176.074,-100.365c13.235,-7.544 13.235,-19.905 0,-27.469l-63.267,-36.061l-136.924,135.203l0,14.97z"/>
 </g>
</svg>